<svg width="502" height="503" viewBox="0 0 502 503" fill="none" xmlns="http://www.w3.org/2000/svg">
<g filter="url(#filter0_d_232_5455)">
<rect x="1" width="500" height="500" rx="250" fill="#E6A800" shape-rendering="crispEdges"/>
<path fill-rule="evenodd" clip-rule="evenodd" d="M225.43 70.975C231.831 64.5821 240.396 60.8204 249.435 60.432C258.473 60.0437 267.329 63.057 274.255 68.8773L276.57 70.9931L310.928 105.333H359.5C368.621 105.335 377.405 108.783 384.092 114.987C390.778 121.191 394.874 129.692 395.558 138.787L395.667 141.5V190.072L430.025 224.43C436.423 230.832 440.188 239.401 440.576 248.444C440.965 257.486 437.948 266.346 432.123 273.273L430.007 275.57L395.649 309.928V358.5C395.651 367.624 392.205 376.413 386.001 383.103C379.797 389.794 371.293 393.892 362.194 394.576L359.5 394.667H310.946L276.588 429.025C270.186 435.423 261.617 439.188 252.574 439.576C243.532 439.965 234.672 436.948 227.745 431.123L225.448 429.025L191.09 394.667H142.5C133.376 394.67 124.587 391.223 117.897 385.019C111.206 378.815 107.108 370.311 106.424 361.212L106.333 358.5V309.928L71.975 275.57C65.577 269.168 61.8121 260.599 61.4238 251.556C61.0354 242.514 64.0518 233.654 69.8773 226.727L71.975 224.43L106.333 190.072V141.5C106.335 132.379 109.783 123.595 115.987 116.908C122.191 110.222 130.692 106.126 139.788 105.442L142.5 105.333H191.072L225.43 70.975ZM306.679 195.443L229.933 272.188L197.962 240.217C194.568 236.826 189.967 234.922 185.17 234.924C180.373 234.926 175.773 236.833 172.383 240.226C168.992 243.619 167.088 248.22 167.09 253.017C167.091 257.814 168.999 262.414 172.392 265.805L215.864 309.277C217.711 311.125 219.905 312.591 222.319 313.592C224.733 314.592 227.32 315.107 229.933 315.107C232.546 315.107 235.133 314.592 237.547 313.592C239.961 312.591 242.155 311.125 244.002 309.277L332.248 221.012C335.542 217.602 337.365 213.034 337.324 208.293C337.283 203.551 335.381 199.016 332.028 195.663C328.675 192.31 324.14 190.408 319.398 190.367C314.657 190.326 310.089 192.149 306.679 195.443Z" fill="white"/>
</g>
<defs>
<filter id="filter0_d_232_5455" x="0" y="0" width="502" height="503" filterUnits="userSpaceOnUse" color-interpolation-filters="sRGB">
<feFlood flood-opacity="0" result="BackgroundImageFix"/>
<feColorMatrix in="SourceAlpha" type="matrix" values="0 0 0 0 0 0 0 0 0 0 0 0 0 0 0 0 0 0 127 0" result="hardAlpha"/>
<feOffset dy="2"/>
<feGaussianBlur stdDeviation="0.5"/>
<feComposite in2="hardAlpha" operator="out"/>
<feColorMatrix type="matrix" values="0 0 0 0 0 0 0 0 0 0 0 0 0 0 0 0 0 0 0.1 0"/>
<feBlend mode="normal" in2="BackgroundImageFix" result="effect1_dropShadow_232_5455"/>
<feBlend mode="normal" in="SourceGraphic" in2="effect1_dropShadow_232_5455" result="shape"/>
</filter>
</defs>
</svg>
