<svg width="502" height="503" viewBox="0 0 502 503" fill="none" xmlns="http://www.w3.org/2000/svg">
<g filter="url(#filter0_d_232_5465)">
<rect x="1" width="500" height="500" rx="250" fill="#C62828" shape-rendering="crispEdges"/>
<g clip-path="url(#clip0_232_5465)">
<path d="M274.333 71.8696L429.422 340.421C431.787 344.516 433.032 349.161 433.032 353.89C433.032 358.618 431.787 363.263 429.423 367.359C427.058 371.454 423.657 374.854 419.561 377.218C415.465 379.583 410.819 380.828 406.089 380.828H95.9109C91.1813 380.828 86.5351 379.583 82.4392 377.218C78.3433 374.854 74.9421 371.454 72.5773 367.359C70.2126 363.263 68.9677 358.618 68.9677 353.89C68.9677 349.161 70.2127 344.516 72.5775 340.421L227.667 71.8696C238.031 53.9111 263.951 53.9111 274.333 71.8696ZM251 284.714C246.236 284.714 241.667 286.606 238.299 289.974C234.93 293.342 233.037 297.909 233.037 302.672C233.037 307.435 234.93 312.003 238.299 315.371C241.667 318.739 246.236 320.631 251 320.631C255.764 320.631 260.333 318.739 263.701 315.371C267.07 312.003 268.963 307.435 268.963 302.672C268.963 297.909 267.07 293.342 263.701 289.974C260.333 286.606 255.764 284.714 251 284.714ZM251 159.004C246.6 159.005 242.354 160.62 239.066 163.543C235.778 166.466 233.678 170.493 233.163 174.862L233.037 176.963V248.797C233.042 253.374 234.796 257.777 237.938 261.105C241.081 264.433 245.377 266.436 249.947 266.705C254.518 266.973 259.018 265.486 262.529 262.548C266.04 259.61 268.296 255.443 268.837 250.898L268.963 248.797V176.963C268.963 172.2 267.07 167.632 263.701 164.264C260.333 160.896 255.764 159.004 251 159.004Z" fill="white"/>
</g>
</g>
<defs>
<filter id="filter0_d_232_5465" x="0" y="0" width="502" height="503" filterUnits="userSpaceOnUse" color-interpolation-filters="sRGB">
<feFlood flood-opacity="0" result="BackgroundImageFix"/>
<feColorMatrix in="SourceAlpha" type="matrix" values="0 0 0 0 0 0 0 0 0 0 0 0 0 0 0 0 0 0 127 0" result="hardAlpha"/>
<feOffset dy="2"/>
<feGaussianBlur stdDeviation="0.5"/>
<feComposite in2="hardAlpha" operator="out"/>
<feColorMatrix type="matrix" values="0 0 0 0 0 0 0 0 0 0 0 0 0 0 0 0 0 0 0.1 0"/>
<feBlend mode="normal" in2="BackgroundImageFix" result="effect1_dropShadow_232_5465"/>
<feBlend mode="normal" in="SourceGraphic" in2="effect1_dropShadow_232_5465" result="shape"/>
</filter>
<clipPath id="clip0_232_5465">
<rect width="365" height="386" fill="white" transform="translate(68.5 57)"/>
</clipPath>
</defs>
</svg>
