<svg width="502" height="503" viewBox="0 0 502 503" fill="none" xmlns="http://www.w3.org/2000/svg">
<g filter="url(#filter0_d_232_5460)">
<rect x="1" width="500" height="500" rx="250" fill="#6E6E6E" shape-rendering="crispEdges"/>
<path d="M251 65C353.175 65 436 147.825 436 250C436 352.175 353.175 435 251 435C148.825 435 66 352.175 66 250C66 147.825 148.825 65 251 65ZM251 324C246.093 324 241.388 325.949 237.919 329.419C234.449 332.888 232.5 337.593 232.5 342.5C232.5 347.407 234.449 352.112 237.919 355.581C241.388 359.051 246.093 361 251 361C255.907 361 260.612 359.051 264.081 355.581C267.551 352.112 269.5 347.407 269.5 342.5C269.5 337.593 267.551 332.888 264.081 329.419C260.612 325.949 255.907 324 251 324ZM251 148.25C233.214 148.25 216.156 155.315 203.58 167.892C191.003 180.469 183.938 197.526 183.938 215.312C183.937 220.219 185.887 224.925 189.356 228.394C192.825 231.863 197.531 233.812 202.438 233.812C207.344 233.812 212.05 231.863 215.519 228.394C218.988 224.925 220.938 220.219 220.938 215.312C220.944 209.856 222.435 204.503 225.251 199.83C228.068 195.156 232.103 191.337 236.925 188.782C241.747 186.227 247.173 185.033 252.622 185.328C258.071 185.622 263.337 187.394 267.856 190.454C272.374 193.513 275.974 197.745 278.271 202.695C280.567 207.645 281.473 213.127 280.891 218.553C280.309 223.978 278.261 229.143 274.967 233.494C271.673 237.844 267.257 241.216 262.192 243.248C249.686 248.243 232.5 261.045 232.5 282.375V287C232.5 291.907 234.449 296.612 237.919 300.081C241.388 303.551 246.093 305.5 251 305.5C255.907 305.5 260.612 303.551 264.081 300.081C267.551 296.612 269.5 291.907 269.5 287C269.5 282.486 270.425 280.229 274.328 278.305L275.938 277.565C290.383 271.754 302.357 261.099 309.807 247.427C317.256 233.755 319.718 217.917 316.77 202.629C313.821 187.34 305.647 173.554 293.647 163.632C281.647 153.711 266.57 148.273 251 148.25Z" fill="white"/>
</g>
<defs>
<filter id="filter0_d_232_5460" x="0" y="0" width="502" height="503" filterUnits="userSpaceOnUse" color-interpolation-filters="sRGB">
<feFlood flood-opacity="0" result="BackgroundImageFix"/>
<feColorMatrix in="SourceAlpha" type="matrix" values="0 0 0 0 0 0 0 0 0 0 0 0 0 0 0 0 0 0 127 0" result="hardAlpha"/>
<feOffset dy="2"/>
<feGaussianBlur stdDeviation="0.5"/>
<feComposite in2="hardAlpha" operator="out"/>
<feColorMatrix type="matrix" values="0 0 0 0 0 0 0 0 0 0 0 0 0 0 0 0 0 0 0.1 0"/>
<feBlend mode="normal" in2="BackgroundImageFix" result="effect1_dropShadow_232_5460"/>
<feBlend mode="normal" in="SourceGraphic" in2="effect1_dropShadow_232_5460" result="shape"/>
</filter>
</defs>
</svg>
